PathFileType	4	(X/Y/Z)	path1_01_0-571.trc
DataRate	CameraRate	NumFrames	NumMarkers	Units	OrigDataRate	OrigDataStartFrame	OrigNumFrames
30	30	6	22	m	30	499	571
Frame#	Time	Hip			RHip			RKnee			RAnkle			RBigToe			RSmallToe			RHeel			LHip			LKnee			LAnkle			LBigToe			LSmallToe			LHeel			Neck			Head			Nose			RShoulder			RElbow			RWrist			LShoulder			LElbow			LWrist		
		X1	Y1	Z1	X2	Y2	Z2	X3	Y3	Z3	X4	Y4	Z4	X5	Y5	Z5	X6	Y6	Z6	X7	Y7	Z7	X8	Y8	Z8	X9	Y9	Z9	X10	Y10	Z10	X11	Y11	Z11	X12	Y12	Z12	X13	Y13	Z13	X14	Y14	Z14	X15	Y15	Z15	X16	Y16	Z16	X17	Y17	Z17	X18	Y18	Z18	X19	Y19	Z19	X20	Y20	Z20	X21	Y21	Z21	X22	Y22	Z22
500	16.666666666666668	-2.2103063658671247	0.8133799761950802	0.5037209643813256	-2.2000837731614293	0.7782585219727661	0.407580306281381	-2.175510185280956	0.40542365871429165	0.4412599054425618	-1.968512847008664	0.1033669672384656	0.4185636669183709	-2.1298205046596808	-0.023599018910914652	0.40654713720642405	-2.0684192900476246	-0.017367389517786696	0.3651748307729121	-1.90609723224722	0.05362961105383005	0.43979321642192737	-2.223809540850817	0.772219507623336	0.5869582547651927	-2.3115311605657456	0.42581484925467017	0.5832281698793768	-2.3432741610675833	0.03838809554097516	0.5815759518096252	-2.5801516128939954	-0.045522340896030924	0.5939532622582374	-2.537573953043911	-0.055880690455755055	0.6227403817524126	-2.365504762491478	-0.034348202063501185	0.5512936560562237	-2.22595135843702	1.4349523030691906	0.4953393325792219	-2.393575558696369	1.6601281388169153	0.4822199864810717	-2.4065649164017042	1.4919060742702541	0.5057524756623533	-2.1511841223030466	1.3191572464768115	0.35742148122988426	-2.1913747507644854	1.0509868927217583	0.25747449421959484	-2.3600004689637073	0.8475566304976192	0.24001348432662958	-2.1758961548578557	1.3450959043014827	0.6731690593224368	-2.1237256368710327	1.0477308995303745	0.7319558889378939	-2.1681979714263524	0.8000852710442429	0.7482819723688235
501	16.7	-2.231932152806289	0.8131229895800159	0.5106916347242889	-2.2237544540237533	0.779589199427012	0.4137605417555908	-2.2094617824015175	0.4069464997629692	0.43858082471875465	-1.9870488359914087	0.1202247074442128	0.4175272125596263	-2.1318268287617186	-0.022607208514687522	0.4081424257402442	-2.075877560925621	-0.013929279690505387	0.3666552429935225	-1.922687757468519	0.07543809388813143	0.4400470458717049	-2.246782288306501	0.7717307819062768	0.5925321817190672	-2.326625899436334	0.42301676566050833	0.5857808355077045	-2.3434575393354464	0.03614912654624971	0.580393030477042	-2.580911979910957	-0.045680116931686825	0.5949912162479294	-2.53894278129044	-0.05634857424610091	0.6234916180994163	-2.3576621699307583	-0.03161681824092522	0.5505469508316453	-2.2387971599317713	1.4322571262780115	0.5127325388446095	-2.4185248301292406	1.6596672452107903	0.4948948845772777	-2.4302931352527373	1.4948118718703616	0.5329043174537795	-2.1727013046459174	1.320495292553761	0.36692144406788135	-2.195368630284348	1.0523910702974315	0.27523052776506757	-2.3643097427749145	0.8446336467279089	0.24804381655343827	-2.1920662338489096	1.3392032553207516	0.686346281024707	-2.150083071415371	1.0448491076480475	0.7415205839250203	-2.2014196794229965	0.7963745357728198	0.7547891230757569
502	16.733333333333334	-2.251858269749722	0.8136629407676811	0.5179365077316763	-2.2461654468015677	0.7819696427655157	0.4198694969346288	-2.245311185268197	0.4107623191147412	0.43288102977107484	-2.012064111412125	0.13768618370874475	0.416299138195297	-2.141347950298395	-0.021941861355357733	0.40758097399188853	-2.0903468125251417	-0.008091580629387772	0.36568607935659164	-1.9463046211740065	0.09770493314483787	0.4394524011869262	-2.266932829626755	0.7725270045198054	0.5986230444702632	-2.34157953215876	0.4216762390154354	0.5860969959182198	-2.3427800948044246	0.03530739337634104	0.579735800435291	-2.57842354318604	-0.04475024764049979	0.5970173977933317	-2.5387413231440634	-0.056152818687263656	0.6244564806189904	-2.3455634023873264	-0.0266896761558083	0.5519898680081986	-2.2501272838060182	1.4300184092681354	0.5302224547723652	-2.4424876474943598	1.6606260636039845	0.5072310207795441	-2.4506964687518784	1.4959596743711365	0.5501017278931665	-2.1930761903033633	1.3227635108486402	0.3753830905355698	-2.201598230779404	1.055118983810364	0.29062041555217555	-2.364356878779556	0.8411623436102024	0.25620670478494234	-2.2063514303100322	1.3317781972705172	0.701672742314092	-2.1767584114269263	1.0427813468378146	0.7508650251262224	-2.2354670719955605	0.7940310100476079	0.7611236596485267
503	16.766666666666666	-2.270060475786526	0.8148823821510944	0.5248625525341855	-2.2668509247084625	0.7847498155887195	0.42579175036160305	-2.2806075211512815	0.4168631088092913	0.425288731716645	-2.0435859309620508	0.1519781011578242	0.41500451433541213	-2.161304350772747	-0.020827813375794892	0.40438415094748104	-2.1143225375532824	-0.0002839468129192894	0.3617036673895779	-1.9775728232587528	0.11541763721169734	0.4377926414222785	-2.2841830521819215	0.774081700220103	0.6050738503917477	-2.356543383619718	0.42197111621666344	0.584499760734097	-2.3420549152215253	0.03639322714451408	0.5795698729510393	-2.5757523990733686	-0.04504083160120273	0.5983587656215519	-2.540042349807796	-0.05805962093130752	0.6233620731502469	-2.33216454143606	-0.02027909294779049	0.5551651075801377	-2.2617032781677087	1.4288836872745707	0.5456366680686281	-2.4644776385715685	1.6626818286439737	0.5182338618506471	-2.4681497087701865	1.495778169772381	0.5591137283068579	-2.212052178836954	1.3257158932038673	0.38265977575204213	-2.210553890356711	1.0585001925450768	0.30318638029559675	-2.360469418330262	0.83711943278138	0.2651721581989943	-2.2203038410413667	1.3241665165176661	0.717464381557562	-2.2036521867391574	1.0413909749354944	0.7594778198907242	-2.269444657811655	0.7930342327293647	0.7672362705082346
504	16.8	-2.286913823666093	0.8165755430023924	0.5308496825141973	-2.2858567784100856	0.7871482413835987	0.43146556886198756	-2.312623930896452	0.42393512366294145	0.41825762000909067	-2.0809463803744723	0.15965770472024343	0.4136607489832141	-2.19427994803275	-0.018582252175538914	0.3988605621595071	-2.1493157802184526	0.007782894107202394	0.3549994303862158	-2.016338809630799	0.12401517805618244	0.4347048039264035	-2.2990401298980556	0.7757569479856842	0.611547757967371	-2.370761698362637	0.42334036467618685	0.5822737819766867	-2.341626226550659	0.03947628196414672	0.5799330825929258	-2.574706875142306	-0.04727700083576402	0.5983257437252892	-2.5441937281529188	-0.06288115241663678	0.6194379714486032	-2.32045543157152	-0.013710051700372297	0.5592439778414797	-2.27460803888174	1.4291494413448778	0.5577168673368168	-2.483774964393098	1.6654083517506497	0.5273034613135604	-2.483592876530974	1.4949994876367267	0.562717586876758	-2.2295826481750827	1.329085030163178	0.38877969784992716	-2.2215573101552923	1.0617845638451198	0.3132213373161323	-2.353584229524527	0.8326331778277216	0.2750581498177384	-2.235563110868246	1.3179156608295235	0.731544787197082	-2.230571056469719	1.0405548723334024	0.7671435620283089	-2.3020178005999394	0.7932819964882989	0.7731854027123686
505	16.833333333333332	-2.303042571347244	0.8184614478923681	0.5354834599029584	-2.3037018739019124	0.7886473511352665	0.43675349089616367	-2.3392163464601543	0.430011868211829	0.41434954352438047	-2.1227631810168246	0.15891846601954834	0.41208437006126714	-2.240381357240899	-0.015341465267293247	0.3920180409977115	-2.1949069166926565	0.013373756150505052	0.3468685963194768	-2.061460613085893	0.1213534363063967	0.42980628854766345	-2.3123617122384608	0.7771306105182868	0.6175451731623731	-2.383246472500198	0.42483383647916806	0.5806941719121784	-2.3415579082283524	0.04395985958425854	0.5809239488696882	-2.5750506693025286	-0.0501245076977339	0.5975386042570376	-2.5496751204400008	-0.06850293559481566	0.6144169608932774	-2.312188983191347	-0.0081669557316452	0.5635418238844716	-2.288787274216586	1.4305703331851836	0.5664977430958822	-2.5000630646946527	1.6684313153507337	0.5344346369406991	-2.498634444365824	1.4948805683603965	0.5637345062691427	-2.245818619332282	1.3325587617545704	0.39380465901308803	-2.2336694738131055	1.0644793774638233	0.32116490793422914	-2.3457708159895785	0.8281866092764583	0.28496765747158964	-2.2527195598973777	1.3139466888101294	0.7424612511324855	-2.2570691265340317	1.0403180300874266	0.7738422892772945	-2.3314398038397197	0.7947815191482809	0.7788066034855767
